Coordinates
version=1
nRows=32
nColumns=12
inDegrees=yes

Units are S.I. units (second, meters, Newtons, ...)
Angles are in degrees

endheader
time	SC_y	SC_z	SC_x	AC_y	AC_z	AC_x	GH_y	GH_z	GH_yy	EL_x	PS_y
       0.0               -32.4         0.3768          81.13          48.43         -19.48          4.545         -91.21          31.46           90.7          106.1          88.18
   0.04178               -32.4         0.3789          81.13          48.43         -19.47          4.542         -91.18          31.46           90.7          106.1          88.18
   0.08356               -32.4         0.3811          81.13          48.43         -19.47          4.538         -91.16          31.46          90.69          106.1          88.19
    0.1253               -32.4         0.3834          81.12          48.43         -19.46          4.534         -91.12          31.45          90.69          106.1          88.19
    0.1671               -32.4         0.3859          81.12          48.43         -19.46           4.53         -91.09          31.45          90.69          106.1          88.19
    0.2089               -32.4         0.3885          81.12          48.44         -19.45          4.526         -91.06          31.45          90.68          106.0           88.2
    0.2507               -32.4         0.3914          81.12          48.44         -19.45          4.521         -91.02          31.45          90.68          106.0           88.2
    0.2925              -32.41         0.3944          81.11          48.44         -19.44          4.516         -90.98          31.44          90.67          106.0           88.2
    0.3343              -32.41         0.3976          81.11          48.44         -19.44          4.511         -90.94          31.44          90.66          106.0          88.21
     0.376              -32.41         0.4011          81.11          48.45         -19.43          4.505         -90.89          31.43          90.66          106.0          88.21
    0.4178              -32.41         0.4049           81.1          48.45         -19.43          4.499         -90.85          31.43          90.65          106.0          88.21
    0.4596              -32.41         0.4089           81.1          48.46         -19.42          4.493         -90.79          31.42          90.64          106.0          88.22
    0.5014              -32.41         0.4132          81.09          48.46         -19.41          4.485         -90.74          31.42          90.63          106.0          88.22
    0.5432              -32.41         0.4179          81.09          48.46          -19.4          4.478         -90.68          31.41          90.62          106.0          88.23
     0.585              -32.42          0.423          81.08          48.47         -19.39          4.469         -90.61          31.41          90.62          105.9          88.24
    0.6267              -32.42         0.4285          81.08          48.47         -19.38           4.46         -90.54           31.4           90.6          105.9          88.24
    0.6685              -32.42         0.4345          81.07          48.48         -19.37          4.451         -90.46          31.39          90.59          105.9          88.25
    0.7103              -32.42          0.441          81.07          48.49         -19.36           4.44         -90.38          31.38          90.58          105.9          88.26
    0.7521              -32.43         0.4481          81.06          48.49         -19.35          4.428         -90.29          31.38          90.57          105.9          88.27
    0.7939              -32.43         0.4559          81.05           48.5         -19.34          4.416         -90.18          31.37          90.55          105.8          88.28
    0.8356              -32.43         0.4644          81.04          48.51         -19.32          4.402         -90.07          31.36          90.54          105.8          88.29
    0.8774              -32.44         0.4738          81.03          48.52          -19.3          4.386         -89.95          31.34          90.52          105.8           88.3
    0.9192              -32.44         0.4842          81.02          48.53         -19.29          4.369         -89.82          31.33           90.5          105.7          88.31
     0.961              -32.44         0.4957          81.01          48.54         -19.27           4.35         -89.67          31.32          90.48          105.7          88.32
     1.003              -32.45         0.5085           81.0          48.55         -19.24          4.329          -89.5           31.3          90.45          105.7          88.34
     1.045              -32.46         0.5228          80.99          48.56         -19.22          4.306         -89.32          31.28          90.43          105.6          88.36
     1.086              -32.46         0.5388          80.97          48.58         -19.19           4.28         -89.11          31.26           90.4          105.6          88.38
     1.128              -32.47         0.5568          80.95          48.59         -19.16           4.25         -88.87          31.24          90.36          105.5           88.4
      1.17              -32.48         0.5772          80.93          48.61         -19.12          4.217         -88.61          31.22          90.32          105.5          88.42
     1.212              -32.49         0.6003          80.91          48.63         -19.08          4.179         -88.31          31.19          90.28          105.4          88.45
     1.253               -32.5         0.6266          80.88          48.66         -19.04          4.136         -87.97          31.16          90.23          105.3          88.48
     1.295              -32.51         0.6569          80.85          48.69         -18.98          4.086         -87.58          31.12          90.17          105.2          88.52
